<svg xmlns="http://www.w3.org/2000/svg" id="Layer_1" viewBox="0 0 146.24 146.24" width="146.24" height="146.24"><defs><style>.cls-1{fill:#9b9b9b}.cls-2,.cls-6{fill:#fff}.cls-3,.cls-5{fill:#f0e9db}.cls-3,.cls-4,.cls-5,.cls-6{stroke:#848484;stroke-width:4px}.cls-3{stroke-miterlimit:10}.cls-4{fill:#e0d0b3}.cls-4,.cls-5{stroke-linecap:round}.cls-4,.cls-5,.cls-6{stroke-linejoin:round}.cls-7{fill:#848484}</style></defs><circle cx="73.12" cy="73.12" r="73.12" class="cls-1"/><circle cx="73.42" cy="73.42" r="62.72" class="cls-2"/><rect width="84.8" height="55.29" x="30.91" y="45.77" class="cls-3" rx="12"/><path d="M35.24 97.73l37.72-34.97 37.28 34.97" class="cls-4"/><path d="M33.24 50.93l40.22 27.64 39.78-27.64" class="cls-5"/><path d="M87.07 28.42C75.41 28.42 66 34.89 66 42.86c0 3.9 2.27 7.44 6 10-.12.05.82 6.49-1.52 8.23-2.82 2.08 7.72-1.19 11.09-3.9.17-.14.31-.26.42-.37a29.88 29.88 0 0 0 5.17.44c11.65 0 21.1-6.46 21.1-14.44s-9.54-14.4-21.19-14.4z" class="cls-6" transform="translate(-1.76 -2.27)"/><circle cx="75.66" cy="41.23" r="2.61" class="cls-7"/><circle cx="85.31" cy="41.23" r="2.61" class="cls-7"/><circle cx="95.36" cy="41.23" r="2.61" class="cls-7"/></svg>