<svg xmlns="http://www.w3.org/2000/svg"><symbol id="facebook-icon" viewBox="0 0 24 24"><style>.st0{fill:#dad7c5}</style><path d="M12 0C5.6 0 0 5.6 0 12s5.6 12 12 12 12-5.6 12-12S18.4 0 12 0zm3.6 8H14c-.8 0-.8 0-.8.8v.8h1.6v1.6h-1.6v7.2H10V12H8.4V9.6H10V8c0-1.6.8-2.4 3.2-2.4h1.6V8h.8z" class="st0"/></symbol><symbol id="instagram-icon" viewBox="0 0 24 24"><style>.st0{fill:#dad7c5}</style><path d="M17.2 7.3v1.3c0 .3-.2.5-.5.5h-1.3c-.3 0-.5-.2-.5-.5V7.3c0-.3.2-.5.5-.5h1.3c.3 0 .5.2.5.5zm-.9 4.1v.6c0 2.4-1.9 4.3-4.3 4.3S7.7 14.4 7.7 12v-.6c0-.2.1-.4.1-.6h-1v5.9c0 .3.2.5.5.5h9.4c.3 0 .5-.2.5-.5v-5.9h-1.1c.1.2.1.4.2.6zm7.7.6c0 6.6-5.4 12-12 12S0 18.6 0 12 5.4 0 12 0s12 5.4 12 12zm-5-5.4c0-.9-.7-1.6-1.6-1.6H6.6C5.7 5 5 5.7 5 6.6v10.8c0 .9.7 1.6 1.6 1.6h10.8c.9 0 1.6-.7 1.6-1.6V6.6z" class="st0"/></symbol><symbol id="logo" viewBox="0 0 118.18 138.86"><text font-family="BentonSans-Bold, Benton Sans" font-size="15.07" font-weight="700" transform="matrix(.74 .74 -.71 .71 16.14 93.08)">D</text><text font-family="BentonSans-Bold, Benton Sans" font-size="15.07" font-weight="700" transform="matrix(.92 .49 -.47 .88 27.86 103.97)">E</text><text font-family="BentonSans-Bold, Benton Sans" font-size="15.07" font-weight="700" transform="matrix(1.01 .27 -.26 .97 40.25 110.22)">S</text><text font-family="BentonSans-Bold, Benton Sans" font-size="15.07" font-weight="700" transform="matrix(1.04 .04 -.04 1 54.73 113.31)">I</text><text font-family="BentonSans-Bold, Benton Sans" font-size="15.07" font-weight="700" transform="matrix(1.02 -.21 .2 .98 64.07 113.59)">G</text><text font-family="BentonSans-Bold, Benton Sans" font-size="15.07" font-weight="700" transform="matrix(.91 -.51 .49 .87 80.06 109.61)">N</text><text font-family="BentonSans-Bold, Benton Sans" font-size="15.07" font-weight="700" transform="matrix(.73 -.74 .71 .7 94.08 100.89)">S</text><path d="M29.79 70.73a52.15 52.15 0 0 1 5.83-30.19 49.84 49.84 0 0 1 4.78-7.36l-.59-.07a28.76 28.76 0 0 1 3 10.32c.48 3.77.69 7.59 1 11.39l1.87 24.36 1.06 13.68c0 .48.79.48.75 0L45.57 68l-1-12.19c-.31-3.91-.53-7.84-1-11.73a30.91 30.91 0 0 0-3.18-11.35.38.38 0 0 0-.59-.08 53.09 53.09 0 0 0-11 29 50.9 50.9 0 0 0 .21 9.07c.05.48.8.48.75 0z"/><path d="M20.14 67.68a69.73 69.73 0 0 1 31.91-17.91A67.7 67.7 0 0 1 62.42 48c.48 0 .48-.79 0-.75a70.7 70.7 0 0 0-34.74 13.08 69.12 69.12 0 0 0-8 6.78c-.34.34.19.87.53.54z"/><path d="M48.5 54.02l.64 9.84c0 .48.78.48.75 0l-.64-9.84c0-.48-.78-.48-.75 0zm12.01-3.34v9a.38.38 0 0 0 .75 0v-9a.38.38 0 0 0-.75 0z"/><path d="M49.82 62.99a36.55 36.55 0 0 1 2.27-5.31c.45-.85.93-1.68 1.45-2.5.23-.37 1.25-2.3 1.7-1.38a4.61 4.61 0 0 1 0 2.39 10.06 10.06 0 0 0 0 2.74 3.78 3.78 0 0 0 2 3 2.88 2.88 0 0 0 3.63-1.25c.28-.4-.37-.77-.65-.38a2.34 2.34 0 0 1-1.87 1.13 2.31 2.31 0 0 1-1.55-.75c-1.22-1.28-.95-3.37-.77-5 .11-.91.29-3.14-1.27-2.91-.78.12-1.22 1-1.6 1.61-.53.8-1 1.63-1.48 2.47a36.68 36.68 0 0 0-2.58 5.93c-.16.46.57.65.72.2z"/><path d="M61.21 60.43a47.5 47.5 0 0 1 2-5.13 24.76 24.76 0 0 1 1.2-2.28c.22-.37 1.09-2.15 1.64-1.7s.23 1.53.17 2a12.65 12.65 0 0 0-.12 2.75c.11 1.26.5 2.57 1.87 2.9a4.54 4.54 0 0 0 4.02-1.29c.35-.33-.18-.86-.53-.53-.89.88-2.59 1.74-3.81 1-.69-.42-.81-1.45-.86-2.18a14.88 14.88 0 0 1 .16-2.75c.11-.91.1-3.09-1.44-2.66-.68.19-1.09 1-1.44 1.55a23.22 23.22 0 0 0-1.39 2.4 46.71 46.71 0 0 0-2.23 5.72c-.15.46.57.66.72.2z"/><path d="M72.34 50.68c-1 2.09-2.11 4.64-.79 6.86a3.14 3.14 0 0 0 2.33 1.56 2.63 2.63 0 0 0 2.48-1c.32-.42-.36-.83-.68-.42a1.93 1.93 0 0 1-2 .62 2.51 2.51 0 0 1-1.76-1.53c-.82-1.93.15-4 1-5.73.21-.43-.44-.82-.65-.38zm.72-5.84a1.9 1.9 0 0 0-3.09.78 2 2 0 0 0 .38 1.77 1.73 1.73 0 0 0 1.68.6 1.91 1.91 0 0 0 1.51-1.31.37.37 0 0 0-.26-.46.38.38 0 0 0-.47.26v.09c0-.06 0 0 0 0l-.08.15-.06.08a1.85 1.85 0 0 1-.14.14s-.08.07 0 0l-.15.09h-.09a.49.49 0 0 1-.17.06h-.17c-.06 0 .09 0 0 0h-.37s-.09 0 0 0h-.26c-.1 0 .06 0 0 0h-.06a.42.42 0 0 1-.14-.09l-.09-.08s-.11-.13-.07-.07l-.09-.14c0-.05 0-.09-.07-.14s0 .06 0 0v-.35c0-.04 0 0 0 0a.86.86 0 0 1 0-.16v-.1s0-.11 0 0v-.25l.07-.15v-.11l.12-.12.14-.09h.07c-.07 0 0 0 0 0a1.39 1.39 0 0 1 .19-.06h.44l.2.05h.09l.18.09a.39.39 0 0 1 .1.08.375.375 0 0 0 .53-.53zm5.15-9.39l-1.65 32.91-.47 9.32c0 .49.72.49.75 0l1.65-32.9.47-9.32c0-.48-.73-.48-.75 0zm4.38 14.95c-1.73 1.35-3.59 2.9-3.89 5.22a3.84 3.84 0 0 0 .7 2.9 3 3 0 0 0 2.14 1.06 2.5 2.5 0 0 0 2.35-1.11c.26-.42-.39-.79-.65-.38a1.9 1.9 0 0 1-2.22.64 2.36 2.36 0 0 1-1.6-2.14c-.25-2.53 1.93-4.27 3.7-5.66.38-.3-.15-.83-.53-.53zm8.6.85c-1.42-.76-3 0-3.93 1.19a11.55 11.55 0 0 0-1.26 2 4.73 4.73 0 0 0-.6 2 2 2 0 0 0 .85 1.72 2.42 2.42 0 0 0 1.88.26 6.83 6.83 0 0 0 3.55-2.39 9.42 9.42 0 0 0 2-4.53c.07-.47-.65-.68-.72-.2a8.61 8.61 0 0 1-3.91 6c-.82.48-2.41.95-2.85-.27a2.48 2.48 0 0 1 .19-1.67 11.21 11.21 0 0 1 .93-1.68c.69-1.11 2-2.53 3.49-1.77.43.23.81-.42.38-.64z"/><path d="M93.29 51.36a3.66 3.66 0 0 0-.2 3.79 3.48 3.48 0 0 0 3.38 1.78 3.55 3.55 0 0 0 2.1-.89c.37-.32-.17-.84-.53-.53a2.94 2.94 0 0 1-3 .45 2.76 2.76 0 0 1-1.59-2.53 2.85 2.85 0 0 1 .52-1.7.37.37 0 1 0-.64-.37z"/><circle cx="59.09" cy="59.09" r="58.59" fill="none" stroke="#000" stroke-miterlimit="10"/><path fill="none" stroke="#000" stroke-miterlimit="10" stroke-width="3" d="M19.1 85.68a48.23 48.23 0 1 1 80-.09"/></symbol><symbol id="toggle-menu" viewBox="0 0 24 24"><path d="M24 6H0V2h24v4zm0 4H0v4h24v-4zm0 8H0v4h24v-4z"/></symbol><symbol id="twitter-icon" viewBox="0 0 24 24"><style>.st0{fill:#dad7c5}</style><path d="M12 0C5.4 0 0 5.4 0 12s5.4 12 12 12 12-5.4 12-12S18.6 0 12 0zm6.1 9.6c.2 4-2.8 8.5-8.2 8.5-1.6 0-3.1-.4-4.4-1.3 1.5.2 3-.2 4.3-1.2-1.2 0-2.3-.8-2.7-2 .4.1.9.1 1.3 0-1.4-.2-2.4-1.5-2.3-2.8.4.2.8.3 1.3.4-1.3-.8-1.7-2.5-.9-3.8 1.5 1.8 3.6 2.9 5.9 3-.4-1.6.6-3.2 2.1-3.5 1-.2 2 .1 2.7.8.6-.1 1.3-.4 1.8-.7-.2.7-.7 1.2-1.3 1.6.6-.1 1.1-.2 1.6-.5-.2.6-.7 1.1-1.2 1.5z" class="st0"/></symbol><symbol id="contact" viewBox="0 0 146.24 146.24"><defs><style>.cls-1{fill:#9b9b9b}.cls-2,.cls-6{fill:#fff}.cls-3,.cls-5{fill:#f0e9db}.cls-3,.cls-4,.cls-5,.cls-6{stroke:#848484;stroke-width:4px}.cls-3{stroke-miterlimit:10}.cls-4{fill:#e0d0b3}.cls-4,.cls-5{stroke-linecap:round}.cls-4,.cls-5,.cls-6{stroke-linejoin:round}.cls-7{fill:#848484}</style></defs><circle cx="73.12" cy="73.12" r="73.12" class="cls-1"/><circle cx="73.42" cy="73.42" r="62.72" class="cls-2"/><rect width="84.8" height="55.29" x="30.91" y="45.77" class="cls-3" rx="12"/><path d="M35.24 97.73l37.72-34.97 37.28 34.97" class="cls-4"/><path d="M33.24 50.93l40.22 27.64 39.78-27.64" class="cls-5"/><path d="M87.07 28.42C75.41 28.42 66 34.89 66 42.86c0 3.9 2.27 7.44 6 10-.12.05.82 6.49-1.52 8.23-2.82 2.08 7.72-1.19 11.09-3.9.17-.14.31-.26.42-.37a29.88 29.88 0 0 0 5.17.44c11.65 0 21.1-6.46 21.1-14.44s-9.54-14.4-21.19-14.4z" class="cls-6" transform="translate(-1.76 -2.27)"/><circle cx="75.66" cy="41.23" r="2.61" class="cls-7"/><circle cx="85.31" cy="41.23" r="2.61" class="cls-7"/><circle cx="95.36" cy="41.23" r="2.61" class="cls-7"/></symbol><symbol id="social-media" viewBox="0 0 147.57 147.57"><defs><style>.cls-1{fill:#9b9b9b}.cls-2{fill:#fff}.cls-3{fill:#848484}.cls-4{fill:#e0d0b3}.cls-5{fill:none;stroke:#e0d0b3;stroke-miterlimit:10;stroke-width:4px}</style></defs><circle cx="73.79" cy="73.79" r="73.79" class="cls-1"/><circle cx="74.09" cy="74.09" r="63.29" class="cls-2"/><rect width="53.99" height="79.64" x="46.79" y="36.07" class="cls-3" rx="14.56"/><rect width="43.19" height="59.39" x="52.19" y="42.37" class="cls-2" rx="7.56"/><circle cx="73.79" cy="108.05" r="4.05" class="cls-4"/><circle cx="74.2" cy="61.57" r="8.85" class="cls-5"/><path d="M91.7 90.94a16.05 16.05 0 0 0-32.1 0z" class="cls-5" transform="translate(-1.64 -.43)"/></symbol></svg>