<svg xmlns="http://www.w3.org/2000/svg"><symbol id="logo-16" viewBox="0 0 138.5 161"><style>.st0{fill:#231f20}.st1{fill:url(#SVGID_1_)}</style><path d="M33.4 87.1l55.9-54.5L77.4 0l-12 9.9L2.5 161h43.4l19.8-55.3zm49.8 29.1l16.9 44.8h36.4l-6.1-16.9z" class="st0"/><linearGradient id="SVGID_1_" x1="50.56" x2="120.19" y1="1170.86" y2="1147.83" gradientTransform="translate(0 -1064.32)" gradientUnits="userSpaceOnUse"><stop offset=".13" stop-color="#692b02"/><stop offset=".35" stop-color="#873d13"/><stop offset=".77" stop-color="#f18235"/></linearGradient><path d="M92.8 42.2L52.6 85.3l73.4 46.6-12.5-33.5-24.2-18L101.8 67z" class="st1"/></symbol><symbol id="logo-32" viewBox="0 0 32 32"><style>.st0{fill:#231f20}.st1{fill:url(#SVGID_1_)}</style><path d="M8.7 17.3L19.8 6.5 17.4 0 15 2 2.5 32h8.6l4-11zm9.8 5.8l3.4 8.9h7.2l-1.2-3.4z" class="st0"/><linearGradient id="SVGID_1_" x1="12.06" x2="25.88" y1="1085.46" y2="1080.89" gradientTransform="translate(0 -1064.32)" gradientUnits="userSpaceOnUse"><stop offset=".13" stop-color="#692b02"/><stop offset=".35" stop-color="#873d13"/><stop offset=".77" stop-color="#f18235"/></linearGradient><path d="M20.4 8.4l-7.9 8.5L27 26.2l-2.4-6.7-4.8-3.6 2.4-2.6z" class="st1"/></symbol><symbol id="logo" viewBox="0 0 138.5 55.2"><style>.st0{fill:#f08134}.st1{font-family:&apos;BentonSansWide-Regular&apos;}.st2{font-size:12.1022px}.st3{letter-spacing:4}.st4{fill:#231f20}.st5{font-family:&apos;TrebuchetMS-Bold&apos;}.st6{font-size:31.6066px}.st7{letter-spacing:3.3}.st8{fill:url(#SVGID_1_)}</style><text class="st0 st1 st2 st3" transform="translate(42.383 38.716)">DESIGNS</text><text class="st4 st5 st6 st7" transform="matrix(.9184 0 0 1 40.568 22.853)">NNIKA</text><path d="M10.6 29.9l19.2-18.7L25.7 0l-4.1 3.4L0 55.2h14.9l6.8-18.9zm17.1 10l5.8 15.3H46l-2.1-5.7z" class="st4"/><linearGradient id="SVGID_1_" x1="16.48" x2="40.39" y1="36.57" y2="28.66" gradientUnits="userSpaceOnUse"><stop offset=".13" stop-color="#692b01"/><stop offset=".35" stop-color="#863d13"/><stop offset=".77" stop-color="#f08134"/></linearGradient><path d="M31 14.5L17.2 29.3l25.2 16-4.3-11.6-8.3-6.1 4.3-4.6z" class="st8"/></symbol><symbol id="logo-24" viewBox="0 0 24 24"><style>.st0{fill:#231f20}.st1{fill:url(#SVGID_1_)}</style><path d="M6.6 13L15 4.9 13.2 0l-1.8 1.5L2 24h6.5l2.9-8.2zm7.4 4.3l2.6 6.7H22l-.9-2.5z" class="st0"/><linearGradient id="SVGID_1_" x1="9.17" x2="19.55" y1="1080.2" y2="1076.77" gradientTransform="translate(0 -1064.32)" gradientUnits="userSpaceOnUse"><stop offset=".13" stop-color="#692b02"/><stop offset=".35" stop-color="#873d13"/><stop offset=".77" stop-color="#f18235"/></linearGradient><path d="M15.5 6.3l-6 6.4 10.9 7-1.8-5L15 12l1.8-2z" class="st1"/></symbol><symbol id="logo-64" viewBox="0 0 64 64"><style>.st0{fill:#231f20}.st1{fill:url(#SVGID_1_)}</style><path d="M15.8 34.8l22.4-22L33.1 0l-4.7 3.7L3.4 64h17.3l7.9-21.7-12.8-7.5zm19.9 11.4L42.4 64h14.5l-2.6-6.8-18.6-11z" class="st0"/><linearGradient id="SVGID_1_" x1="22.52" x2="50.27" y1="-2101.52" y2="-2092.34" gradientTransform="matrix(1 0 0 -1 0 -2059.32)" gradientUnits="userSpaceOnUse"><stop offset=".13" stop-color="#692b02"/><stop offset=".35" stop-color="#873d13"/><stop offset=".77" stop-color="#f18235"/></linearGradient><path d="M39.4 16.6L23.5 34.1l29 18.2L47.8 39l-9.6-7.2 4.9-4.9-3.7-10.3z" class="st1"/></symbol><symbol id="facebook-icon" viewBox="0 0 24 24"><style>.st0{fill:#dad7c5}</style><path d="M12 0C5.6 0 0 5.6 0 12s5.6 12 12 12 12-5.6 12-12S18.4 0 12 0zm3.6 8H14c-.8 0-.8 0-.8.8v.8h1.6v1.6h-1.6v7.2H10V12H8.4V9.6H10V8c0-1.6.8-2.4 3.2-2.4h1.6V8h.8z" class="st0"/></symbol><symbol id="instagram-icon" viewBox="0 0 24 24"><style>.st0{fill:#dad7c5}</style><path d="M17.2 7.3v1.3c0 .3-.2.5-.5.5h-1.3c-.3 0-.5-.2-.5-.5V7.3c0-.3.2-.5.5-.5h1.3c.3 0 .5.2.5.5zm-.9 4.1v.6c0 2.4-1.9 4.3-4.3 4.3S7.7 14.4 7.7 12v-.6c0-.2.1-.4.1-.6h-1v5.9c0 .3.2.5.5.5h9.4c.3 0 .5-.2.5-.5v-5.9h-1.1c.1.2.1.4.2.6zm7.7.6c0 6.6-5.4 12-12 12S0 18.6 0 12 5.4 0 12 0s12 5.4 12 12zm-5-5.4c0-.9-.7-1.6-1.6-1.6H6.6C5.7 5 5 5.7 5 6.6v10.8c0 .9.7 1.6 1.6 1.6h10.8c.9 0 1.6-.7 1.6-1.6V6.6z" class="st0"/></symbol><symbol id="toggle-menu" viewBox="0 0 24 24"><path d="M24 6H0V2h24v4zm0 4H0v4h24v-4zm0 8H0v4h24v-4z"/></symbol><symbol id="twitter-icon" viewBox="0 0 24 24"><style>.st0{fill:#dad7c5}</style><path d="M12 0C5.4 0 0 5.4 0 12s5.4 12 12 12 12-5.4 12-12S18.6 0 12 0zm6.1 9.6c.2 4-2.8 8.5-8.2 8.5-1.6 0-3.1-.4-4.4-1.3 1.5.2 3-.2 4.3-1.2-1.2 0-2.3-.8-2.7-2 .4.1.9.1 1.3 0-1.4-.2-2.4-1.5-2.3-2.8.4.2.8.3 1.3.4-1.3-.8-1.7-2.5-.9-3.8 1.5 1.8 3.6 2.9 5.9 3-.4-1.6.6-3.2 2.1-3.5 1-.2 2 .1 2.7.8.6-.1 1.3-.4 1.8-.7-.2.7-.7 1.2-1.3 1.6.6-.1 1.1-.2 1.6-.5-.2.6-.7 1.1-1.2 1.5z" class="st0"/></symbol></svg>