<svg height="24" viewBox="0 0 24 24" width="24" xmlns="http://www.w3.org/2000/svg"><path d="m17.2 7.3v1.3c0 .3-.2.5-.5.5h-1.3c-.3 0-.5-.2-.5-.5v-1.3c0-.3.2-.5.5-.5h1.3c.3 0 .5.2.5.5zm-.9 4.1v.6c0 2.4-1.9 4.3-4.3 4.3s-4.3-1.9-4.3-4.3v-.6c0-.2.1-.4.1-.6h-1v5.9c0 .3.2.5.5.5h9.4c.3 0 .5-.2.5-.5v-5.9h-1.1c.1.2.1.4.2.6zm7.7.6c0 6.6-5.4 12-12 12s-12-5.4-12-12 5.4-12 12-12 12 5.4 12 12zm-5-5.4c0-.9-.7-1.6-1.6-1.6h-10.8c-.9 0-1.6.7-1.6 1.6v10.8c0 .9.7 1.6 1.6 1.6h10.8c.9 0 1.6-.7 1.6-1.6z" fill="#dad7c5"/></svg>