<svg xmlns="http://www.w3.org/2000/svg" id="Layer_1" width="62.72" height="73.74" viewBox="0 0 62.72 73.74"><defs><style>.cls-1{font-size:8px;font-family:BentonSans-Bold,Benton Sans;font-weight:700}.cls-2,.cls-3{fill:none;stroke:#000;stroke-miterlimit:10}.cls-2{stroke-width:.5px}.cls-3{stroke-width:2px}</style></defs><text class="cls-1" transform="matrix(.75 .73 -.7 .72 8.81 49.72)">D</text><text class="cls-1" transform="matrix(.92 .48 -.46 .89 15.3 55.47)">E</text><text class="cls-1" transform="matrix(1.01 .25 -.24 .97 21.97 58.73)">S</text><text class="cls-1" transform="matrix(1.04 .02 -.02 1 29.67 60.2)">I</text><text class="cls-1" transform="matrix(1.02 -.23 .22 .97 34.67 60.23)">G</text><text class="cls-1" transform="matrix(.89 -.54 .52 .86 43.34 57.81)">N</text><text class="cls-1" transform="matrix(.71 -.76 .73 .68 50.72 52.86)">S</text><path d="M16.49 38.18a27.74 27.74 0 0 1 5.62-19.9l-.39-.05c1.9 3.51 1.82 7.81 2.12 11.69l1 12.68.57 7.33c0 .32.53.32.5 0l-1-13.18c-.33-4.26-.53-8.56-1-12.81a16.46 16.46 0 0 0-1.69-6 .25.25 0 0 0-.39-.05A28.15 28.15 0 0 0 16 38.18c0 .32.54.32.5 0z" transform="translate(-.64 -.64)"/><path d="M11.35 36.58a37.09 37.09 0 0 1 22.42-10.42c.32 0 .32-.53 0-.5A37.63 37.63 0 0 0 11 36.22a.25.25 0 0 0 .35.36z" transform="translate(-.64 -.64)"/><path d="M26.33 29.31l.33 5.22c0 .32.52.32.5 0l-.33-5.22c0-.32-.52-.33-.5 0zm6.37-1.79v4.78c0 .32.49.32.5 0v-4.78a.25.25 0 0 0-.5 0z" transform="translate(-.64 -.64)"/><path d="M27.13 34.08a18.15 18.15 0 0 1 1.2-2.8c.23-.46.49-.9.76-1.33.11-.17.62-1.14.82-.74a2.41 2.41 0 0 1 0 1.25 5.57 5.57 0 0 0 0 1.47 2.07 2.07 0 0 0 1.1 1.6 1.58 1.58 0 0 0 2-.67c.18-.26-.25-.51-.44-.26a1 1 0 0 1-1.73.19c-.64-.66-.49-1.77-.39-2.6.06-.51.13-1.74-.75-1.59-.42.07-.66.55-.87.88s-.55.86-.79 1.31A19.22 19.22 0 0 0 26.65 34c-.11.31.37.44.48.13z" transform="translate(-.64 -.64)"/><path d="M33.18 32.72a24.71 24.71 0 0 1 1-2.71c.13-.28 1.11-2.33 1.43-2.1s.1.81.07 1.05a7.14 7.14 0 0 0-.06 1.46c.06.69.28 1.41 1 1.59a2.46 2.46 0 0 0 2.2-.75c.23-.22-.12-.58-.35-.35-.45.44-1.34.9-2 .52-.35-.21-.41-.74-.43-1.11a8.94 8.94 0 0 1 .08-1.46 1.81 1.81 0 0 0-.08-1.08.64.64 0 0 0-.75-.38c-.37.1-.6.54-.79.85a12.49 12.49 0 0 0-.72 1.29 25.68 25.68 0 0 0-1.19 3.05c-.1.31.38.44.49.13z" transform="translate(-.64 -.64)"/><path d="M39 27.48c-.54 1.13-1.13 2.5-.42 3.7a1.74 1.74 0 0 0 1.28.85 1.45 1.45 0 0 0 1.36-.57c.2-.26-.24-.51-.43-.25a1 1 0 0 1-1 .3 1.25 1.25 0 0 1-.9-.79 3.68 3.68 0 0 1 .52-3c.14-.28-.29-.54-.43-.25zm.45-3.08a1.06 1.06 0 0 0-1.72.43 1.1 1.1 0 0 0 .21 1 1 1 0 0 0 .94.34 1.09 1.09 0 0 0 .84-.72.25.25 0 0 0-.18-.31.25.25 0 0 0-.3.17v.06c0 .01 0 0 0 0a.2.2 0 0 1 0 .08.6.6 0 0 1-.08.08h-.08a.19.19 0 0 1-.1 0h-.36c-.06 0 0 0 0 0h-.07a.35.35 0 0 1 0-.08v-.08c0-.03 0 .06 0 0a.14.14 0 0 1 0-.06.24.24 0 0 1 0-.08v-.05c0-.05 0 0 0 0v-.22s0-.06 0 0a.12.12 0 0 1 0-.08l.06-.06h.35c.06 0 0 0 0 0h.16l.09.05h.05a.25.25 0 1 0 .35-.35zm2.65-4.95L41 41.87c0 .32.49.32.5 0l1.1-22.42c0-.32-.48-.32-.5 0zm2.34 7.9a4.54 4.54 0 0 0-2.08 2.8 2.06 2.06 0 0 0 .39 1.58 1.62 1.62 0 0 0 1.17.58 1.37 1.37 0 0 0 1.29-.62c.17-.27-.26-.52-.43-.25a1 1 0 0 1-1.12.32 1.22 1.22 0 0 1-.82-1.09c-.13-1.32 1-2.24 2-3 .25-.2-.11-.55-.36-.35zm4.63.44a1.76 1.76 0 0 0-2.15.64 5.85 5.85 0 0 0-.68 1.09 2.58 2.58 0 0 0-.32 1.11 1.13 1.13 0 0 0 .47 1 1.4 1.4 0 0 0 1 .14 3.7 3.7 0 0 0 1.89-1.32A5 5 0 0 0 50.42 28a.25.25 0 1 0-.48-.13 4.46 4.46 0 0 1-2 3.16c-.4.24-1.21.5-1.43-.11a1.17 1.17 0 0 1 .1-.86 6.42 6.42 0 0 1 .47-.9c.35-.56 1-1.31 1.79-.92.28.15.53-.28.25-.43z" transform="translate(-.64 -.64)"/><path d="M50.11 27.87a2 2 0 0 0-.1 2.06 1.88 1.88 0 0 0 1.84 1 2 2 0 0 0 1.15-.51c.24-.22-.11-.57-.35-.36a1.5 1.5 0 0 1-1.56.23 1.41 1.41 0 0 1-.82-1.3 1.49 1.49 0 0 1 .27-.87.25.25 0 0 0-.43-.25z" transform="translate(-.64 -.64)"/><circle cx="31.36" cy="31.36" r="31.11" class="cls-2"/><path d="M10.77 46.14a25.61 25.61 0 1 1 42.5 0" class="cls-3" transform="translate(-.64 -.64)"/></svg>