<svg xmlns="http://www.w3.org/2000/svg" id="Layer_1" width="31.8" height="31.8" viewBox="0 0 31.8 31.8"><defs><style>.cls-1,.cls-2{fill:none;stroke:#000;stroke-miterlimit:10}.cls-1{stroke-width:.5px}</style></defs><path d="M12 19.15a18.46 18.46 0 0 1 3.77-13.22h-.2a12.39 12.39 0 0 1 1.19 4.9c.15 1.77.28 3.55.42 5.32L18 26.94c0 .16.27.16.25 0l-.88-11.31c-.14-1.83-.25-3.65-.44-5.47a11.44 11.44 0 0 0-1.16-4.38.13.13 0 0 0-.2 0 18.71 18.71 0 0 0-3.81 13.4c0 .16.27.16.25 0z" transform="translate(-.1 -.07)"/><path d="M8.64 18.06a24.65 24.65 0 0 1 14.89-6.92c.16 0 .16-.26 0-.25a25 25 0 0 0-15.07 7c-.11.11.06.29.18.18z" transform="translate(-.1 -.07)"/><circle cx="15.9" cy="15.9" r="15.65" class="cls-1"/><circle cx="15.9" cy="15.9" r="13.15" class="cls-2"/></svg>