<svg height="23.86" viewBox="0 0 23.86 23.86" width="23.86" xmlns="http://www.w3.org/2000/svg"><path d="m9.36 14.08a13.51 13.51 0 0 1 2.74-9.66h-.22a9.16 9.16 0 0 1 .87 3.58c.11 1.29.2 2.58.3 3.87l.62 7.87c0 .16.26.16.25 0l-.66-8.37c-.18-2.32 0-5-1.16-7.11a.13.13 0 0 0 -.22 0 13.72 13.72 0 0 0 -2.77 9.79c0 .16.27.16.25 0z" transform="translate(-.03 -.13)"/><path d="m6.87 13.3a18 18 0 0 1 10.85-5c.16 0 .16-.26 0-.25a18.34 18.34 0 0 0 -11 5.12c-.11.11.07.29.18.17z" transform="translate(-.03 -.13)"/><g fill="none" stroke="#000" stroke-miterlimit="10"><circle cx="11.93" cy="11.93" r="11.81" stroke-width=".25"/><circle cx="11.93" cy="11.93" r="10" stroke-width=".75"/></g></svg>