<svg height="15.97" viewBox="0 0 15.97 15.97" width="15.97" xmlns="http://www.w3.org/2000/svg"><path d="m6.07 9.62a9.22 9.22 0 0 1 1.93-6.62h-.27a6.49 6.49 0 0 1 .6 2.57l.21 2.6.46 5.37c0 .15.27.16.25 0l-.5-5.79c-.12-1.6 0-3.42-.8-4.88a.13.13 0 0 0 -.22 0 9.51 9.51 0 0 0 -1.91 6.75c0 .16.27.16.25 0z" transform="translate(-.01 -.04)"/><path d="m4.35 9.12a12.35 12.35 0 0 1 7.43-3.46c.16 0 .16-.26 0-.25a12.58 12.58 0 0 0 -7.61 3.53c-.12.11.06.29.18.18z" transform="translate(-.01 -.04)"/><g fill="none" stroke="#000" stroke-miterlimit="10"><circle cx="7.99" cy="7.99" r="7.86" stroke-width=".25"/><circle cx="7.99" cy="7.99" r="6.61" stroke-width=".5"/></g></svg>